<svg width="512" height="512" viewBox="0 0 512 512" fill="none" xmlns="http://www.w3.org/2000/svg">
<g clip-path="url(#clip0_3123_7474)">
<path d="M471.579 0H40.4211C18.0971 0 0 18.0971 0 40.4211V471.579C0 493.903 18.0971 512 40.4211 512H471.579C493.903 512 512 493.903 512 471.579V40.4211C512 18.0971 493.903 0 471.579 0Z" fill="url(#paint0_linear_3123_7474)"/>
<path d="M512 344.859V471.579C512 482.299 507.741 492.581 500.161 500.161C492.581 507.741 482.299 512 471.579 512H344.859L223.596 390.737H288.404V121.263L512 344.859Z" fill="url(#paint1_linear_3123_7474)"/>
<path d="M288.404 390.737H223.596V121.263H288.404V390.737Z" fill="white"/>
</g>
<defs>
<linearGradient id="paint0_linear_3123_7474" x1="-17.6992" y1="0.968765" x2="867.849" y2="239.824" gradientUnits="userSpaceOnUse">
<stop stop-color="#043A07"/>
<stop offset="0.817708" stop-color="#010F0C"/>
</linearGradient>
<linearGradient id="paint1_linear_3123_7474" x1="204.834" y1="204.834" x2="500.177" y2="500.177" gradientUnits="userSpaceOnUse">
<stop/>
<stop offset="1" stop-color="#01190B" stop-opacity="0"/>
</linearGradient>
<clipPath id="clip0_3123_7474">
<rect width="512" height="512" fill="white"/>
</clipPath>
</defs>
</svg>
